<svg width="994" height="994" viewBox="0 0 994 994" fill="none" xmlns="http://www.w3.org/2000/svg">
<path d="M217.88 678.739L317.393 677.932C317.393 677.932 317.885 576.687 318.438 575.815L419.146 573.559L420.426 469.826C420.426 469.826 520.571 468.708 521.746 467.733C523.122 466.59 523.685 366.92 525.483 366.23L625.851 365.452V263H778.16C778.16 263 777.89 315.336 776.136 316.01L677.077 316.787L676.407 418.599L575.295 419.88L574.015 522.332L472.902 523.613L471.622 626.065L369.229 627.346L368.56 731.719H215C215 731.719 215.013 679.508 217.88 678.739Z" fill="white"/>
<circle cx="497" cy="497" r="472" stroke="white" stroke-width="50"/>
</svg>
